<svg width="511" height="360" xmlns="http://www.w3.org/2000/svg" xmlns:xlink="http://www.w3.org/1999/xlink" xml:space="preserve" overflow="hidden"><g transform="translate(43 -205)"><path d="M-9.4912 563.421C-12.5114 562.609-15.3794 561.549-15.8646 561.063-16.3741 560.554 15.5918 527.728 59.807 483.355L136.362 406.528 159.681 429.642C172.506 442.354 184.877 453.925 187.171 455.355 189.465 456.784 194.149 458.899 197.578 460.054 201.854 461.495 206.38 462.162 211.98 462.178 216.471 462.19 222.126 461.667 224.547 461.015 226.969 460.363 231.661 458.464 234.975 456.795 239.768 454.381 245.869 448.931 264.805 430.152L288.611 406.545 365.23 483.312C412.101 530.274 441.49 560.437 440.925 561.002 440.416 561.509 437.318 562.623 434.04 563.476 428.739 564.856 404.18 565.021 212.04 564.962 24.8952 564.905-4.7345 564.699-9.4912 563.421ZM-41.1696 533.778C-42.9106 528.785-43 521.516-43 385.028-43 248.54-42.9106 241.271-41.1696 236.278-40.1629 233.391-39.0368 231.028-38.6672 231.028-38.2976 231.028-3.3473 265.678 39 308.028L115.995 385.028 39 462.028C-3.3473 504.378-38.2976 539.028-38.6672 539.028-39.0368 539.028-40.1629 536.666-41.1696 533.778ZM386.006 462.034 309.018 385.041 386 308.034C428.34 265.681 463.288 231.028 463.661 231.028 464.034 231.028 465.163 233.391 466.17 236.278 467.911 241.271 468 248.54 468 385.028 468 521.516 467.911 528.785 466.17 533.778 465.163 536.666 464.037 539.028 463.667 539.028 463.298 539.028 428.35 504.381 386.006 462.034ZM205 430.613C203.35 429.877 152.771 379.921 92.603 319.599 28.0997 254.931-16.4262 209.555-15.8972 209.027-15.4037 208.534-12.318 207.433-9.0399 206.58-3.7432 205.201 20.9165 205.028 212.5 205.028 404.084 205.028 428.743 205.201 434.04 206.58 437.318 207.433 440.42 208.551 440.934 209.064 441.513 209.642 400.204 251.736 332.434 319.625 267.718 384.456 221.685 429.821 219.782 430.641 218.012 431.404 214.637 432.01 212.282 431.989 209.927 431.967 206.65 431.348 205 430.613Z" fill="#8D2055"/></g></svg>