<svg width="533" height="533" xmlns="http://www.w3.org/2000/svg" xmlns:xlink="http://www.w3.org/1999/xlink" xml:space="preserve" overflow="hidden"><g transform="translate(-38 -12)"><path d="M304.501 12C232.123 12 223.047 12.307 194.622 13.6035 166.256 14.8975 146.884 19.4033 129.932 25.9901 112.407 32.8007 97.5451 41.9137 82.7298 56.729 67.9137 71.5443 58.8007 86.4079 51.9909 103.933 45.4025 120.884 40.8983 140.256 39.6027 168.622 38.3063 197.047 38 206.123 38 278.501 38 350.877 38.3063 359.953 39.6027 388.378 40.8983 416.744 45.4025 436.116 51.9909 453.067 58.8015 470.592 67.9145 485.454 82.7298 500.271 97.5458 515.086 112.407 524.199 129.932 531.01 146.884 537.597 166.256 542.102 194.622 543.397 223.047 544.693 232.123 545 304.501 545 376.877 545 385.953 544.693 414.378 543.397 442.744 542.102 462.116 537.597 479.067 531.01 496.592 524.199 511.454 515.086 526.271 500.271 541.086 485.454 550.199 470.592 557.01 453.067 563.597 436.116 568.102 416.744 569.397 388.378 570.693 359.953 571 350.877 571 278.501 571 206.123 570.693 197.047 569.397 168.622 568.102 140.256 563.597 120.884 557.01 103.933 550.199 86.4079 541.086 71.5443 526.271 56.729 511.454 41.9137 496.592 32.8007 479.067 25.9901 462.116 19.4033 442.744 14.8975 414.378 13.6035 385.953 12.307 376.877 12 304.501 12ZM304.501 60.0177C375.658 60.0177 384.087 60.2898 412.189 61.5719 438.173 62.7565 452.284 67.098 461.674 70.7477 474.114 75.5827 482.992 81.3571 492.316 90.6828 501.643 100.008 507.417 108.887 512.252 121.326 515.902 130.716 520.244 144.828 521.428 170.811 522.71 198.913 522.982 207.342 522.982 278.5 522.982 349.658 522.71 358.087 521.428 386.189 520.244 412.173 515.902 426.284 512.252 435.674 507.417 448.114 501.643 456.992 492.316 466.316 482.992 475.643 474.113 481.417 461.674 486.252 452.284 489.902 438.172 494.243 412.189 495.428 384.092 496.71 375.664 496.982 304.5 496.982 233.336 496.982 224.91 496.71 196.811 495.427 170.827 494.243 156.716 489.902 147.326 486.252 134.886 481.417 126.008 475.643 116.684 466.316 107.358 456.992 101.583 448.113 96.7477 435.674 93.098 426.284 88.7573 412.172 87.5719 386.189 86.2898 358.087 86.0177 349.658 86.0177 278.5 86.0177 207.342 86.2898 198.913 87.5719 170.811 88.7573 144.827 93.098 130.716 96.7477 121.326 101.583 108.886 107.358 100.008 116.683 90.6836 126.008 81.3571 134.887 75.5827 147.326 70.7477 156.716 67.098 170.828 62.7565 196.811 61.5719 224.913 60.2898 233.342 60.0177 304.5 60.0177" fill="#8D2055"/><path d="M304.501 367.334C255.438 367.334 215.666 327.562 215.666 278.501 215.666 229.438 255.438 189.666 304.501 189.666 353.562 189.666 393.334 229.438 393.334 278.501 393.334 327.562 353.562 367.334 304.501 367.334ZM304.501 141.649C228.919 141.649 167.649 202.919 167.649 278.501 167.649 354.081 228.919 415.351 304.501 415.351 380.081 415.351 441.351 354.081 441.351 278.501 441.351 202.919 380.081 141.649 304.501 141.649M478.739 136.242C478.739 153.904 464.42 168.221 446.758 168.221 429.097 168.221 414.779 153.904 414.779 136.242 414.779 118.58 429.097 104.261 446.758 104.261 464.42 104.261 478.739 118.58 478.739 136.242" fill="#8D2055"/></g></svg>